<svg width="66" height="66" viewBox="0 0 66 66" fill="none" xmlns="http://www.w3.org/2000/svg">
<rect x="1" y="1" width="64" height="64" rx="16" fill="white" stroke="black" stroke-opacity="0.1"/>
<path d="M27.9963 39.1662C28.8145 39.1662 29.524 38.4822 29.5304 37.6321C29.524 36.7947 28.8145 36.1108 27.9963 36.1108C27.1525 36.1108 26.4558 36.7947 26.4622 37.6321C26.4558 38.4822 27.1525 39.1662 27.9963 39.1662ZM32.9976 39.1662C33.8158 39.1662 34.5253 38.4822 34.5317 37.6321C34.5253 36.7947 33.8158 36.1108 32.9976 36.1108C32.1539 36.1108 31.4571 36.7947 31.4635 37.6321C31.4571 38.4822 32.1539 39.1662 32.9976 39.1662ZM37.9989 39.1662C38.8171 39.1662 39.5266 38.4822 39.533 37.6321C39.5266 36.7947 38.8171 36.1108 37.9989 36.1108C37.1552 36.1108 36.4584 36.7947 36.4648 37.6321C36.4584 38.4822 37.1552 39.1662 37.9989 39.1662Z" fill="black"/>
</svg>
