<svg width="66" height="66" viewBox="0 0 66 66" fill="none" xmlns="http://www.w3.org/2000/svg">
<rect x="1" y="1" width="64" height="64" rx="16" fill="white" stroke="black" stroke-opacity="0.1"/>
<path d="M32.9672 39.179C35.9076 39.179 38.0106 37.5618 38.0042 35.3246C38.0106 33.6946 36.9751 32.5312 35.051 32.2884V32.1861C36.5148 31.924 37.5248 30.8885 37.5184 29.4183C37.5248 27.3537 35.7158 25.7301 33.0056 25.7301C30.3209 25.7301 28.301 27.3026 28.2627 29.5653H30.9154C30.9474 28.5682 31.8614 27.9226 32.9928 27.9226C34.1114 27.9226 34.8593 28.6001 34.8529 29.5845C34.8593 30.6136 33.9836 31.3104 32.7243 31.3104H31.5035V33.343H32.7243C34.2073 33.343 35.1341 34.0845 35.1278 35.1392C35.1341 36.1811 34.2393 36.897 32.9736 36.897C31.7528 36.897 30.8387 36.2578 30.7876 35.299H28.0006C28.0454 37.5874 30.0908 39.179 32.9672 39.179Z" fill="black"/>
</svg>
