<svg width="66" height="66" viewBox="0 0 66 66" fill="none" xmlns="http://www.w3.org/2000/svg">
<rect x="1" y="1" width="64" height="64" rx="16" fill="white" stroke="black" stroke-opacity="0.1"/>
<path d="M33.0415 39.179C35.9563 39.179 37.9379 37.2805 37.9315 34.6342C37.9379 32.1286 36.1864 30.326 33.8278 30.326C32.6772 30.326 31.6864 30.8054 31.2262 31.451H31.1495L31.4883 28.1719H37.2092V25.9091H29.2063L28.5863 32.8125L31.0472 33.2536C31.4499 32.7102 32.2298 32.3714 33.0032 32.3714C34.32 32.3778 35.266 33.3303 35.266 34.7045C35.266 36.0661 34.3391 37.0057 33.0415 37.0057C31.9421 37.0057 31.0536 36.3153 30.9897 35.299H28.305C28.3562 37.5618 30.3313 39.179 33.0415 39.179Z" fill="black"/>
</svg>
